<?xml version="1.0" standalone="no"?><!DOCTYPE svg PUBLIC "-//W3C//DTD SVG 1.1//EN" "http://www.w3.org/Graphics/SVG/1.1/DTD/svg11.dtd"><svg t="1702287410419" class="icon" viewBox="0 0 1024 1024" version="1.1" xmlns="http://www.w3.org/2000/svg" p-id="12152" xmlns:xlink="http://www.w3.org/1999/xlink" width="200" height="200"><path d="M512 0C228.8 0 0 228.8 0 512s228.8 512 512 512 512-228.8 512-512S795.2 0 512 0z m235.2 737.6c-9.6 14.4-28.8 19.2-44.8 11.2-120-73.6-272-91.2-449.6-49.6-17.6 4.8-35.2-6.4-38.4-24-4.8-17.6 6.4-35.2 24-38.4C433.6 592 600 611.2 736 694.4c16 9.6 19.2 28.8 11.2 43.2z m62.4-137.6c-11.2 17.6-36.8 24-54.4 12.8-137.6-84.8-347.2-108.8-510.4-59.2-20.8 6.4-43.2-4.8-49.6-27.2-6.4-20.8 4.8-43.2 27.2-49.6 185.6-57.6 416-28.8 574.4 67.2 17.6 12.8 24 35.2 12.8 56z m4.8-145.6c-164.8-97.6-438.4-107.2-595.2-59.2-24 8-51.2-6.4-59.2-32-8-24 6.4-51.2 32-59.2 180.8-54.4 480-44.8 670.4 68.8 22.4 14.4 30.4 43.2 17.6 65.6-12.8 22.4-43.2 28.8-65.6 16z" p-id="12153"></path></svg>